<?xml version="1.0" encoding="utf-8"?>
<!-- Generator: Adobe Illustrator 24.0.0, SVG Export Plug-In . SVG Version: 6.00 Build 0)  -->
<svg version="1.1" id="Layer_1" xmlns="http://www.w3.org/2000/svg" xmlns:xlink="http://www.w3.org/1999/xlink" x="0px" y="0px"
	 viewBox="0 0 512 512" style="enable-background:new 0 0 512 512;" xml:space="preserve">
<style type="text/css">
	.st0{fill:#251F42;}
	.st1{fill:#FFFFFF;}
</style>
<path class="st0" d="M50.38,386h407.24c16.78,0,30.38-13.6,30.38-30.38V211.38c0-16.78-13.6-30.38-30.38-30.38H50.38
	C33.6,181,20,194.6,20,211.38v144.24C20,372.4,33.6,386,50.38,386z"/>
<g>
	<path class="st1" d="M129.81,291.36v-3.28c9.45-0.94,9.91-1.72,9.76-13.74l-0.39-45.82h-0.47l-28.57,62.14h-2.34l-26.31-60.58
		h-0.31l-1.72,32.08c-0.47,9.45-0.47,14.29-0.23,18.81c0.23,5.39,2.97,6.17,10.69,6.95v3.43h-27.4v-3.43
		c6.71-0.63,8.98-2.26,9.91-6.79c0.62-3.98,1.33-8.9,2.26-21.16l1.72-22.95c1.01-14.83,0.31-15.46-10.15-16.47v-3.43h19.91
		l26.46,56.13l26.85-56.13h20.45v3.43c-10.23,0.86-10.93,1.25-10.54,12.57l1.09,41.22c0.39,12.02,0.7,12.8,10.85,13.74v3.28H129.81z
		"/>
	<path class="st1" d="M215.21,291.36v-3.28c7.26-1.02,8.27-2.03,6.71-6.64c-1.64-4.53-3.75-10.23-6.25-16.78h-25.06
		c-1.95,5.23-3.51,9.68-5,14.21c-2.5,6.95-1.56,8.27,7.26,9.21v3.28h-25.76v-3.28c7.57-1.17,9.21-1.95,13.35-12.1l24.51-59.56
		l4.06-1.01c7.49,20.22,14.99,40.51,22.72,60.58c3.75,10.07,5.39,11.32,12.96,12.1v3.28H215.21z M203.74,231.09h-0.23
		c-3.75,9.45-7.42,19.2-10.93,28.42h21.39L203.74,231.09z"/>
	<path class="st1" d="M317.63,271.22c-0.94,4.53-2.97,15.46-4.29,20.14h-61.98l-1.01-1.8c16.55-22.64,32.94-44.73,49.57-67.99
		h-20.38c-12.88,0-14.68,1.09-16.71,4.22c-1.41,2.03-2.73,5.07-4.14,10.23l-3.51-0.16c0.63-7.73,1.25-16.47,1.41-21.62h2.81
		c1.48,2.73,2.73,2.89,6.25,2.89h48.24l0.94,1.72c-16.39,22.4-32.55,44.42-48.71,67.53c3.9,0.47,10.85,0.7,18.81,0.7
		c14.21,0,19.28-0.86,22.72-4.37c2.34-2.5,4.29-6.09,6.56-12.18L317.63,271.22z"/>
	<path class="st1" d="M323.41,291.36v-3.28c9.52-0.7,10.54-1.41,10.54-11.24V231.8c0-9.91-1.01-10.62-10.54-11.24v-3.43h31.85v3.43
		c-9.45,0.62-10.46,1.33-10.46,11.24v45.04c0,9.84,1.02,10.54,10.46,11.24v3.28H323.41z"/>
	<path class="st1" d="M399.2,217.12c14.91,0,26.31,3.04,33.57,9.76c5.78,5.54,9.99,13.9,9.99,24.59c0,13.5-5.54,23.73-14.68,30.45
		c-8.98,6.48-20.92,9.45-35.36,9.45h-29.04v-3.28c9.99-0.7,11.01-1.41,11.01-11.16v-45.28c0-9.84-1.01-10.3-9.99-11.01v-3.51H399.2z
		 M385.62,275.9c0,9.06,3.98,11.16,12.57,11.16c21.78,0,32.24-15.85,32.24-33.8c0-11.79-4.61-21.47-13.19-26.85
		c-5.39-3.59-12.41-5.31-20.76-5.31c-5.23,0-8.12,0.78-9.37,1.56c-1.09,0.78-1.48,2.19-1.48,6.64V275.9z"/>
</g>
<g>
	<path class="st1" d="M358.54,341.68c-1.68,0-2.95-1.17-2.95-3.09c0-1.68,1.27-2.99,3.02-2.99c1.75,0,2.99,1.31,2.99,2.99
		c0,1.92-1.24,3.09-2.99,3.09H358.54z"/>
	<path class="st1" d="M381.86,308.43c6.56,0,11.58,1.34,14.77,4.29c2.54,2.44,4.4,6.11,4.4,10.82c0,5.94-2.44,10.44-6.46,13.4
		c-3.95,2.85-9.21,4.16-15.56,4.16h-12.78v-1.44c4.4-0.31,4.84-0.62,4.84-4.91v-19.92c0-4.33-0.45-4.53-4.4-4.84v-1.54H381.86z
		 M375.89,334.29c0,3.98,1.75,4.91,5.53,4.91c9.58,0,14.19-6.97,14.19-14.87c0-5.19-2.03-9.45-5.81-11.82
		c-2.37-1.58-5.46-2.34-9.14-2.34c-2.3,0-3.57,0.34-4.12,0.69c-0.48,0.34-0.65,0.96-0.65,2.92V334.29z"/>
	<path class="st1" d="M404.94,341.1v-1.34c3.19-0.31,3.57-0.62,3.57-4.12v-10.1c0-3.16-0.17-3.4-3.19-3.92v-1.2
		c2.75-0.45,5.32-1.03,7.63-1.92v17.14c0,3.47,0.34,3.74,3.61,4.12v1.34H404.94z M407.62,311.63c0-1.62,1.31-2.82,2.82-2.82
		c1.51,0,2.68,1.2,2.68,2.82c0,1.44-1.17,2.71-2.75,2.71C408.93,314.34,407.62,313.07,407.62,311.63z"/>
	<path class="st1" d="M442,320.52c-2.71,0.38-3.16,0.86-4.5,3.78c-1.75,3.67-4.46,9.89-7.35,17.35h-1.44
		c-2.4-6.05-4.77-11.71-7.21-17.52c-1.17-2.75-1.65-3.16-4.36-3.61v-1.34h10.96v1.34c-2.75,0.41-2.89,0.76-2.06,2.92
		c1.27,3.33,3.37,8.66,4.77,11.95c1.65-3.81,3.33-8.42,4.43-11.64c0.75-2.27,0.48-2.85-2.37-3.23v-1.34H442V320.52z"/>
</g>
</svg>
